nColumns=19
nRows=73
DataType=double
version=3
OpenSimVersion=4.1
endheader
time	ground_force_1_vx	ground_force_1_vy	ground_force_1_vz	ground_force_1_px	ground_force_1_py	ground_force_1_pz	ground_force_1_mx	ground_force_1_my	ground_force_1_mz	ground_force_2_vx	ground_force_2_vy	ground_force_2_vz	ground_force_2_px	ground_force_2_py	ground_force_2_pz	ground_force_2_mx	ground_force_2_my	ground_force_2_mz
0.11	0	0	0	2.60199e-05	0	0.00040293	0	0	0	-32.4119	137.985	20.6511	0.926207	0	-0.37152	-0	6.19937	-0
0.12	0	0	0	2.60199e-05	0	0.00040293	0	0	0	-147.775	535.72	51.2728	0.928813	0	-0.381073	0	-2.4044	0
0.13	0	0	0	2.60199e-05	0	0.00040293	0	0	0	-207.817	998.355	78.8048	0.911787	0	-0.370914	0	-8.25943	0
0.14	0	0	0	2.60199e-05	0	0.00040293	0	0	0	-214.119	1417.46	74.2518	0.879163	0	-0.362697	0	-10.4454	0
0.15	0	0	0	2.60199e-05	0	0.00040293	0	0	0	-221.769	1709.71	31.7681	0.841781	0	-0.361099	0	-9.55261	0
0.16	0	0	0	2.60199e-05	0	0.00040293	0	0	0	-237.053	1898.51	-9.8055	0.806025	0	-0.361972	0	-7.37624	0
0.17	0	0	0	2.60199e-05	0	0.00040293	0	0	0	-224.243	2067.19	-14.558	0.77099	0	-0.360622	0	-5.77666	0
0.18	0	0	0	2.60199e-05	0	0.00040293	0	0	0	-157.642	2213.41	5.45368	0.734277	0	-0.359248	0	-5.59625	0
0.19	0	0	0	2.60199e-05	0	0.00040293	0	0	0	-63.2584	2274.51	18.8822	0.696334	0	-0.360802	0	-6.44869	0
0.2	0	0	0	2.60199e-05	0	0.00040293	0	0	0	24.6596	2228.72	19.9771	0.658447	0	-0.363158	0	-7.27564	0
0.21	0	0	0	2.60199e-05	0	0.00040293	0	0	0	105.3	2087.13	18.341	0.620243	0	-0.363195	0	-7.04562	0
0.22	0	0	0	2.60199e-05	0	0.00040293	0	0	0	188.997	1847.26	10.78	0.57871	0	-0.361665	0	-5.25483	0
0.23	0	0	0	2.60199e-05	0	0.00040293	0	0	0	267.617	1515.37	-8.78517	0.531799	0	-0.361319	0	-2.18104	0
0.24	0	0	0	2.60199e-05	0	0.00040293	0	0	0	302.065	1133.92	-29.2109	0.483563	0	-0.362969	-0	1.22765	-0
0.25	0	0	0	2.60199e-05	0	0.00040293	0	0	0	272.875	762.557	-34.5039	0.441011	0	-0.364292	-0	3.87147	-0
0.26	0	0	0	2.60199e-05	0	0.00040293	0	0	0	200.642	454.761	-25.7412	0.416356	0	-0.36191	-0	5.09355	-0
0.27	0	0	0	2.60199e-05	0	0.00040293	0	0	0	116.295	229.762	-15.7425	0.40631	0	-0.360148	-0	4.90722	-0
0.28	0	0	0	2.60199e-05	0	0.00040293	0	0	0	51.3802	88.522	-10.5225	0.360004	0	-0.371465	-0	3.79114	-0
0.29	0	0	0	2.60199e-05	0	0.00040293	0	0	0	15.712	26.8796	-6.71804	0.33093	0	-0.381941	-0	2.34684	-0
0.3	0	0	0	2.60199e-05	0	0.00040293	0	0	0	1.69944	12.187	-1.82518	0.77633	0	-0.25327	-0	1.06175	-0
0.31	0	0	0	2.60199e-05	0	0.00040293	0	0	0	0	0	0	2.60199e-05	0	0.00040293	0	0	0
0.32	0	0	0	2.60199e-05	0	0.00040293	0	0	0	0	0	0	2.60199e-05	0	0.00040293	0	0	0
0.33	0	0	0	2.60199e-05	0	0.00040293	0	0	0	0	0	0	2.60199e-05	0	0.00040293	0	0	0
0.34	0	0	0	2.60199e-05	0	0.00040293	0	0	0	0	0	0	2.60199e-05	0	0.00040293	0	0	0
0.35	0	0	0	2.60199e-05	0	0.00040293	0	0	0	0	0	0	2.60199e-05	0	0.00040293	0	0	0
0.36	0	0	0	2.60199e-05	0	0.00040293	0	0	0	0	0	0	2.60199e-05	0	0.00040293	0	0	0
0.37	0	0	0	2.60199e-05	0	0.00040293	0	0	0	0	0	0	2.60199e-05	0	0.00040293	0	0	0
0.38	0	0	0	2.60199e-05	0	0.00040293	0	0	0	0	0	0	2.60199e-05	0	0.00040293	0	0	0
0.39	-13.6935	27.3634	-8.25215	0.957654	0	-0.224161	-0	0.322921	-0	0	0	0	2.60199e-05	0	0.00040293	0	0	0
0.4	-51.398	110.757	-18.7848	0.971199	0	-0.24696	-0	1.81824	-0	0	0	0	2.60199e-05	0	0.00040293	0	0	0
0.41	-133.579	334.169	-33.575	0.981267	0	-0.252782	-0	3.24432	-0	0	0	0	2.60199e-05	0	0.00040293	0	0	0
0.42	-229.243	716.6	-46.322	0.973696	0	-0.258274	-0	3.98198	-0	0	0	0	2.60199e-05	0	0.00040293	0	0	0
0.43	-273.601	1160.26	-46.4775	0.943696	0	-0.265421	-0	3.63514	-0	0	0	0	2.60199e-05	0	0.00040293	0	0	0
0.44	-285.894	1552.71	-27.9072	0.904553	0	-0.271995	-0	2.3585	-0	0	0	0	2.60199e-05	0	0.00040293	0	0	0
0.45	-308.866	1830.29	-0.120981	0.868686	0	-0.276279	-0	0.898293	-0	0	0	0	2.60199e-05	0	0.00040293	0	0	0
0.46	-307.715	2014.47	16.0685	0.833251	0	-0.279103	-0	0.223216	-0	0	0	0	2.60199e-05	0	0.00040293	0	0	0
0.47	-250.847	2156.76	11.3665	0.79462	0	-0.280701	-0	0.956036	-0	0	0	0	2.60199e-05	0	0.00040293	0	0	0
0.48	-163.862	2257.89	-3.57346	0.756005	0	-0.28022	-0	3.02748	-0	0	0	0	2.60199e-05	0	0.00040293	0	0	0
0.49	-80.8184	2284.78	-17.0417	0.719149	0	-0.278425	-0	5.76833	-0	0	0	0	2.60199e-05	0	0.00040293	0	0	0
0.5	-0.349295	2219.41	-27.0973	0.681513	0	-0.276935	-0	8.27705	-0	0	0	0	2.60199e-05	0	0.00040293	0	0	0
0.51	86.5361	2064.06	-31.5985	0.640957	0	-0.276167	-0	9.80163	-0	0	0	0	2.60199e-05	0	0.00040293	0	0	0
0.52	179.954	1827.69	-26.3436	0.596918	0	-0.275409	-0	10.0023	-0	0	0	0	2.60199e-05	0	0.00040293	0	0	0
0.53	262.503	1526.03	-15.1529	0.551894	0	-0.274303	-0	9.01797	-0	0	0	0	2.60199e-05	0	0.00040293	0	0	0
0.54	296.626	1182.05	-7.14555	0.509319	0	-0.273292	-0	7.30049	-0	0	0	0	2.60199e-05	0	0.00040293	0	0	0
0.55	273.42	824.34	-4.82883	0.466336	0	-0.272536	-0	5.33826	-0	0	0	0	2.60199e-05	0	0.00040293	0	0	0
0.56	210.994	501.33	-3.99939	0.420593	0	-0.270839	-0	3.47727	-0	0	0	0	2.60199e-05	0	0.00040293	0	0	0
0.57	129.065	261.373	-1.68477	0.392457	0	-0.266064	-0	1.91054	-0	0	0	0	2.60199e-05	0	0.00040293	0	0	0
0.58	55.6665	113.958	1.2829	0.423001	0	-0.255091	-0	0.737708	-0	0	0	0	2.60199e-05	0	0.00040293	0	0	0
0.59	14.2943	39.3555	2.81875	0.547743	0	-0.228955	0	-0.010274	0	0	0	0	2.60199e-05	0	0.00040293	0	0	0
0.6	1.18063	12.1245	2.41341	0.86891	0	-0.177182	0	-0.385301	0	0	0	0	2.60199e-05	0	0.00040293	0	0	0
0.61	0	0	0	2.60199e-05	0	0.00040293	0	0	0	0	0	0	2.60199e-05	0	0.00040293	0	0	0
0.62	0	0	0	2.60199e-05	0	0.00040293	0	0	0	0	0	0	2.60199e-05	0	0.00040293	0	0	0
0.63	0	0	0	2.60199e-05	0	0.00040293	0	0	0	0	0	0	2.60199e-05	0	0.00040293	0	0	0
0.64	0	0	0	2.60199e-05	0	0.00040293	0	0	0	0	0	0	2.60199e-05	0	0.00040293	0	0	0
0.65	0	0	0	2.60199e-05	0	0.00040293	0	0	0	0	0	0	2.60199e-05	0	0.00040293	0	0	0
0.66	0	0	0	2.60199e-05	0	0.00040293	0	0	0	0	0	0	2.60199e-05	0	0.00040293	0	0	0
0.67	0	0	0	2.60199e-05	0	0.00040293	0	0	0	0	0	0	2.60199e-05	0	0.00040293	0	0	0
0.68	0	0	0	2.60199e-05	0	0.00040293	0	0	0	0	0	0	2.60199e-05	0	0.00040293	0	0	0
0.69	0	0	0	2.60199e-05	0	0.00040293	0	0	0	0	0	0	2.60199e-05	0	0.00040293	0	0	0
0.7	0	0	0	2.60199e-05	0	0.00040293	0	0	0	0	0	0	2.60199e-05	0	0.00040293	0	0	0
0.71	0	0	0	2.60199e-05	0	0.00040293	0	0	0	-13.474	25.5643	-3.18052	1.02128	0	-0.423479	-0	6.18669	-0
0.72	0	0	0	2.60199e-05	0	0.00040293	0	0	0	-48.0063	104.103	0.62108	0.932091	0	-0.451082	-0	4.99152	-0
0.73	0	0	0	2.60199e-05	0	0.00040293	0	0	0	-126.607	319.24	18.5874	0.928213	0	-0.443982	-0	2.2521	-0
0.74	0	0	0	2.60199e-05	0	0.00040293	0	0	0	-213.106	684.659	54.9563	0.923773	0	-0.430989	0	-1.30578	0
0.75	0	0	0	2.60199e-05	0	0.00040293	0	0	0	-240.569	1103.92	92.1472	0.899408	0	-0.418766	0	-4.50802	0
0.76	0	0	0	2.60199e-05	0	0.00040293	0	0	0	-230.396	1480.64	100.559	0.860399	0	-0.411581	0	-6.41325	0
0.77	0	0	0	2.60199e-05	0	0.00040293	0	0	0	-229.483	1756.43	78.5925	0.820339	0	-0.409684	0	-6.94245	0
0.78	0	0	0	2.60199e-05	0	0.00040293	0	0	0	-229.189	1944.93	59.0598	0.78326	0	-0.408874	0	-6.84535	0
0.79	0	0	0	2.60199e-05	0	0.00040293	0	0	0	-201.386	2089.58	64.8218	0.746244	0	-0.40727	0	-6.99743	0
0.8	0	0	0	2.60199e-05	0	0.00040293	0	0	0	-129.317	2184.95	83.4207	0.706575	0	-0.406828	0	-7.70803	0
0.81	0	0	0	2.60199e-05	0	0.00040293	0	0	0	-26.8118	2202.3	93.8188	0.664028	0	-0.408512	0	-8.59686	0
0.82	0	0	0	2.60199e-05	0	0.00040293	0	0	0	84.9316	2133.58	93.7282	0.619671	0	-0.410056	0	-8.93579	0
0.83	0	0	0	2.60199e-05	0	0.00040293	0	0	0	191.058	1978.83	89.0047	0.575104	0	-0.40965	0	-8.06289	0
